
<svg width="31" height="29" viewBox="0 0 31 29" fill="none" xmlns="http://www.w3.org/2000/svg">
    <path d="M14.209 0C16.933 4.77449e-05 19.583 0.776406 21.873 2.24609C22.3227 2.53557 22.4545 3.13516 22.165 3.58594C21.8746 4.0363 21.2768 4.16682 20.8262 3.87793C18.8499 2.60819 16.5611 1.93755 14.209 1.9375C7.44296 1.9375 1.9375 7.44235 1.9375 14.208C1.93753 20.9734 7.44297 26.4785 14.209 26.4785C20.9746 26.4784 26.4795 20.9733 26.4795 14.208C26.4795 13.8037 26.4602 13.4034 26.4229 13.0098C26.3713 12.4762 26.7618 12.0027 27.2939 11.9512C27.8285 11.9022 28.2998 12.2903 28.3516 12.8223C28.3953 13.2782 28.417 13.7405 28.417 14.208C28.417 22.0416 22.043 28.4159 14.209 28.416C6.37486 28.416 2.86737e-05 22.0417 0 14.208C0 6.3743 6.37485 0 14.209 0ZM29.3438 1.56934C29.7224 1.19094 30.3355 1.19094 30.7139 1.56934C31.0922 1.94774 31.0923 2.56108 30.7139 2.93945L16.5059 17.1475C16.316 17.3357 16.0682 17.4296 15.8203 17.4297C15.5725 17.4297 15.3242 17.3352 15.1357 17.1455L9.32324 11.334C8.94483 10.9553 8.94483 10.3413 9.32324 9.96289C9.70159 9.58463 10.315 9.58472 10.6934 9.96289L15.8213 15.0908L29.3438 1.56934Z" fill="url(#paint0_linear_57_413)"/>
    <defs>
        <linearGradient id="paint0_linear_57_413" x1="-3.05743" y1="4.10834" x2="31.4956" y2="9.2215" gradientUnits="userSpaceOnUse">
            <stop stop-color="#00160D"/>
            <stop offset="0.994442" stop-color="#00351E"/>
        </linearGradient>
    </defs>
</svg>
