
<svg width="38" height="37" viewBox="0 0 38 37" fill="none" xmlns="http://www.w3.org/2000/svg">
    <path d="M18.0489 0.75908C18.3483 -0.162231 19.6517 -0.162229 19.9511 0.759082L23.7148 12.3427C23.8487 12.7547 24.2326 13.0337 24.6659 13.0337H36.8456C37.8143 13.0337 38.2171 14.2733 37.4333 14.8427L27.5798 22.0017C27.2293 22.2564 27.0826 22.7077 27.2165 23.1198L30.9802 34.7034C31.2796 35.6247 30.2251 36.3908 29.4414 35.8214L19.5878 28.6623C19.2373 28.4077 18.7627 28.4077 18.4122 28.6623L8.55862 35.8214C7.77491 36.3908 6.72043 35.6247 7.01978 34.7034L10.7835 23.1198C10.9174 22.7077 10.7707 22.2564 10.4202 22.0017L0.566653 14.8427C-0.217061 14.2733 0.185717 13.0337 1.15444 13.0337H13.3342C13.7674 13.0337 14.1513 12.7547 14.2852 12.3427L18.0489 0.75908Z" fill="#F6C018"/>
</svg>
